<svg id="visual" viewBox="0 0 1920 1080" width="1920" height="1080" xmlns="http://www.w3.org/2000/svg" xmlns:xlink="http://www.w3.org/1999/xlink" version="1.1"><rect x="0" y="0" width="1920" height="1080" fill="#18181b"></rect><path d="M0 439L45.7 428.5C91.3 418 182.7 397 274.2 374.8C365.7 352.7 457.3 329.3 548.8 341.3C640.3 353.3 731.7 400.7 823 397C914.3 393.3 1005.7 338.7 1097 338C1188.3 337.3 1279.7 390.7 1371.2 409C1462.7 427.3 1554.3 410.7 1645.8 407.2C1737.3 403.7 1828.7 413.3 1874.3 418.2L1920 423L1920 0L1874.3 0C1828.7 0 1737.3 0 1645.8 0C1554.3 0 1462.7 0 1371.2 0C1279.7 0 1188.3 0 1097 0C1005.7 0 914.3 0 823 0C731.7 0 640.3 0 548.8 0C457.3 0 365.7 0 274.2 0C182.7 0 91.3 0 45.7 0L0 0Z" fill="#202020"></path><path d="M0 307L45.7 302C91.3 297 182.7 287 274.2 292C365.7 297 457.3 317 548.8 310.7C640.3 304.3 731.7 271.7 823 263.2C914.3 254.7 1005.7 270.3 1097 268.5C1188.3 266.7 1279.7 247.3 1371.2 238.2C1462.7 229 1554.3 230 1645.8 234.3C1737.3 238.7 1828.7 246.3 1874.3 250.2L1920 254L1920 0L1874.3 0C1828.7 0 1737.3 0 1645.8 0C1554.3 0 1462.7 0 1371.2 0C1279.7 0 1188.3 0 1097 0C1005.7 0 914.3 0 823 0C731.7 0 640.3 0 548.8 0C457.3 0 365.7 0 274.2 0C182.7 0 91.3 0 45.7 0L0 0Z" fill="#1d1d1d"></path><path d="M0 241L45.7 229.2C91.3 217.3 182.7 193.7 274.2 197.8C365.7 202 457.3 234 548.8 234.2C640.3 234.3 731.7 202.7 823 190.5C914.3 178.3 1005.7 185.7 1097 197C1188.3 208.3 1279.7 223.7 1371.2 218.8C1462.7 214 1554.3 189 1645.8 196.5C1737.3 204 1828.7 244 1874.3 264L1920 284L1920 0L1874.3 0C1828.7 0 1737.3 0 1645.8 0C1554.3 0 1462.7 0 1371.2 0C1279.7 0 1188.3 0 1097 0C1005.7 0 914.3 0 823 0C731.7 0 640.3 0 548.8 0C457.3 0 365.7 0 274.2 0C182.7 0 91.3 0 45.7 0L0 0Z" fill="#1b1b1b"></path><path d="M0 170L45.7 164.2C91.3 158.3 182.7 146.7 274.2 145.5C365.7 144.3 457.3 153.7 548.8 154.8C640.3 156 731.7 149 823 154.5C914.3 160 1005.7 178 1097 183.5C1188.3 189 1279.7 182 1371.2 173.5C1462.7 165 1554.3 155 1645.8 160.8C1737.3 166.7 1828.7 188.3 1874.3 199.2L1920 210L1920 0L1874.3 0C1828.7 0 1737.3 0 1645.8 0C1554.3 0 1462.7 0 1371.2 0C1279.7 0 1188.3 0 1097 0C1005.7 0 914.3 0 823 0C731.7 0 640.3 0 548.8 0C457.3 0 365.7 0 274.2 0C182.7 0 91.3 0 45.7 0L0 0Z" fill="#191919"></path><path d="M0 126L45.7 122.7C91.3 119.3 182.7 112.7 274.2 112.5C365.7 112.3 457.3 118.7 548.8 115.8C640.3 113 731.7 101 823 96.5C914.3 92 1005.7 95 1097 101.7C1188.3 108.3 1279.7 118.7 1371.2 111.7C1462.7 104.7 1554.3 80.3 1645.8 69.8C1737.3 59.3 1828.7 62.7 1874.3 64.3L1920 66L1920 0L1874.3 0C1828.7 0 1737.3 0 1645.8 0C1554.3 0 1462.7 0 1371.2 0C1279.7 0 1188.3 0 1097 0C1005.7 0 914.3 0 823 0C731.7 0 640.3 0 548.8 0C457.3 0 365.7 0 274.2 0C182.7 0 91.3 0 45.7 0L0 0Z" fill="#161616"></path></svg>